<svg width="87" height="82" viewBox="0 0 87 82" fill="none" xmlns="http://www.w3.org/2000/svg">
<path d="M1.64197 66.132C3.94347 70.3022 7.16415 75.8495 10.1074 79.5242M10.1074 79.5242C10.4463 79.9477 12.7309 76.5778 12.8231 76.4135C14.8488 72.8125 16.3412 69.0569 17.78 65.1966M10.1074 79.5242C2.87897 54.6701 12.6942 30.4107 29.5366 22.8702C31.2059 22.1228 33.0236 21.3111 34.9056 20.6647M34.9056 20.6647C37.9028 19.6352 41.0632 19.0249 44.0478 19.7611C46.8022 20.4407 50.1041 22.4862 50.9016 25.3452C52.3911 30.6862 46.3863 34.9317 41.4154 32.9699C37.047 31.2461 33.7381 25.1615 34.9056 20.6647ZM34.9056 20.6647C34.9302 20.5698 34.9568 20.4757 34.9855 20.3823C41.8988 -2.15773 69.6162 -2.53147 84.642 9.56964" stroke="white" stroke-width="3.28334" stroke-miterlimit="1.5" stroke-linecap="round" stroke-linejoin="round"/>
</svg>
