<svg width="174" height="60" viewBox="0 0 174 60" fill="none" xmlns="http://www.w3.org/2000/svg">
<path d="M173.717 5.4756C173.947 4.79153 173.561 4.05274 172.854 3.82547C172.148 3.5982 171.39 3.96851 171.16 4.65259L172.438 5.0641L173.717 5.4756ZM138.361 37.4684L138.578 38.7577V38.7577L138.361 37.4684ZM97.8471 15.5683L96.5027 15.5706V15.5706L97.8471 15.5683ZM109.983 1.33405L110.084 2.63615V2.63615L109.983 1.33405ZM122.864 11.7185L124.128 11.2813L122.864 11.7185ZM88.4958 46.9014L88.6513 48.1988V48.1988L88.4958 46.9014ZM51.5941 24.3326L52.9364 24.2659V24.2659L51.5941 24.3326ZM60.3727 13.3671L60.7111 14.6323L60.3727 13.3671ZM72.9996 21.1515L71.7827 21.6993L72.9996 21.1515ZM33.7875 58.5965L33.8859 57.2954V57.2954L33.7875 58.5965ZM1.34458 39.048L1.6415 37.7768C1.16427 37.669 0.666021 37.8211 0.340578 38.1738C0.0151359 38.5266 -0.0861133 39.0243 0.0762123 39.4734L1.34458 39.048ZM13.3224 43.0908C14.0466 43.2544 14.7666 42.8178 14.9306 42.1158C15.0946 41.4137 14.6404 40.712 13.9162 40.5485L13.6193 41.8197L13.3224 43.0908ZM4.45359 51.5823C4.69995 52.2638 5.46752 52.6257 6.16801 52.3908C6.86851 52.1559 7.23666 51.413 6.99031 50.7315L5.72195 51.1569L4.45359 51.5823ZM172.438 5.0641C171.16 4.65259 171.16 4.65227 171.16 4.65206C171.16 4.65214 171.16 4.65203 171.16 4.65218C171.16 4.65248 171.16 4.65321 171.159 4.65437C171.158 4.65668 171.157 4.66072 171.155 4.66645C171.151 4.67791 171.145 4.69613 171.136 4.72091C171.119 4.77047 171.092 4.84627 171.056 4.94668C170.983 5.14751 170.872 5.44667 170.72 5.83115C170.418 6.60029 169.957 7.70973 169.327 9.05557C168.067 11.7499 166.137 15.3777 163.463 19.1147C158.095 26.6148 149.852 34.3882 138.143 36.179L138.361 37.4684L138.578 38.7577C151.32 36.8088 160.115 28.3802 165.674 20.613C168.463 16.7165 170.468 12.9444 171.777 10.1472C172.432 8.74728 172.914 7.58808 173.234 6.77502C173.393 6.36839 173.513 6.04806 173.593 5.82717C173.633 5.71672 173.663 5.6311 173.684 5.57197C173.694 5.5424 173.702 5.51945 173.708 5.50332C173.71 5.49525 173.712 5.4889 173.714 5.48427C173.715 5.48195 173.715 5.48007 173.716 5.47863C173.716 5.4779 173.716 5.47715 173.717 5.47679C173.717 5.47614 173.717 5.4756 172.438 5.0641ZM138.361 37.4684L138.143 36.179C129.003 37.577 119.199 35.9438 111.703 32.1412C104.189 28.3293 99.2482 22.4945 99.1916 15.566L97.8471 15.5683L96.5027 15.5706C96.5702 23.8378 102.467 30.3937 110.469 34.4531C118.49 38.5219 128.88 40.2409 138.578 38.7577L138.361 37.4684ZM97.8471 15.5683L99.1916 15.566C99.175 13.5334 100.043 10.3655 101.912 7.65031C103.764 4.95991 106.476 2.87823 110.084 2.63615L109.983 1.33405L109.882 0.0319593C105.201 0.346092 101.827 3.06254 99.6732 6.19073C97.5371 9.29409 96.4814 12.9652 96.5027 15.5706L97.8471 15.5683ZM109.983 1.33405L110.084 2.63615C113.493 2.40741 115.931 3.71272 117.752 5.59704C119.613 7.5239 120.817 10.0531 121.6 12.1556L122.864 11.7185L124.128 11.2813C123.299 9.05394 121.943 6.13052 119.708 3.81743C117.431 1.46179 114.235 -0.260174 109.882 0.0319593L109.983 1.33405ZM122.864 11.7185L121.6 12.1556C124.724 20.5405 121.393 28.2879 114.673 34.3353C107.932 40.4014 97.9325 44.5773 88.3403 45.6041L88.4958 46.9014L88.6513 48.1988C98.7543 47.1174 109.305 42.736 116.507 36.2547C123.731 29.7547 127.736 20.9647 124.128 11.2813L122.864 11.7185ZM88.4958 46.9014L88.3403 45.6041C80.1125 46.4848 71.42 44.9997 64.7117 41.3442C58.0317 37.7041 53.3911 31.968 52.9364 24.2659L51.5941 24.3326L50.2518 24.3992C50.7708 33.1895 56.113 39.6442 63.4065 43.6186C70.6717 47.5776 79.9432 49.1309 88.6513 48.1988L88.4958 46.9014ZM51.5941 24.3326L52.9364 24.2659C52.7937 21.8491 53.393 19.802 54.6413 18.2006C55.8922 16.596 57.88 15.33 60.7111 14.6323L60.3727 13.3671L60.0344 12.1019C56.7386 12.9142 54.1791 14.4548 52.4934 16.6173C50.8051 18.783 50.0785 21.4638 50.2518 24.3992L51.5941 24.3326ZM60.3727 13.3671L60.7111 14.6323C63.304 13.9933 65.3995 14.5046 67.166 15.737C68.9877 17.0078 70.5275 19.0988 71.7827 21.6993L72.9996 21.1515L74.2164 20.6038C72.8603 17.7941 71.0724 15.2571 68.7263 13.6204C66.325 11.9452 63.4127 11.2694 60.0344 12.1019L60.3727 13.3671ZM72.9996 21.1515L71.7827 21.6993C75.9891 30.4142 71.539 39.552 63.1685 46.5744C54.8201 53.5783 43.0619 58.0041 33.8859 57.2954L33.7875 58.5965L33.6891 59.8976C43.7529 60.6748 56.1911 55.8887 64.934 48.5539C73.6548 41.2377 79.1909 30.9101 74.2164 20.6038L72.9996 21.1515ZM33.7875 58.5965L33.8859 57.2954C26.7634 56.7454 18.9266 52.0818 12.7292 47.3601C9.66275 45.0237 7.05815 42.7207 5.22004 41.0013C4.30166 40.1422 3.57635 39.4304 3.08228 38.9351C2.83528 38.6875 2.6462 38.4941 2.51979 38.3637C2.4566 38.2984 2.40907 38.2489 2.37783 38.2162C2.36221 38.1999 2.35066 38.1877 2.34325 38.1799C2.33955 38.176 2.33687 38.1732 2.33526 38.1715C2.33445 38.1706 2.33389 38.1701 2.33361 38.1698C2.33347 38.1696 2.33345 38.1696 2.33337 38.1695C2.33343 38.1696 2.33354 38.1697 1.34458 39.048C0.355615 39.9262 0.355856 39.9265 0.356172 39.9268C0.356363 39.927 0.356741 39.9274 0.357123 39.9278C0.357889 39.9286 0.358924 39.9297 0.360228 39.9311C0.362825 39.9338 0.366471 39.9377 0.371155 39.9426C0.380535 39.9525 0.394091 39.9668 0.411748 39.9852C0.447049 40.0222 0.498746 40.076 0.566256 40.1457C0.701245 40.2851 0.899493 40.4878 1.15618 40.7451C1.66948 41.2596 2.417 41.9931 3.36038 42.8756C5.24578 44.6392 7.92048 47.0047 11.0771 49.4097C17.3259 54.1707 25.7106 59.2814 33.6891 59.8976L33.7875 58.5965ZM1.34458 39.048L1.04765 40.3191L13.3224 43.0908L13.6193 41.8197L13.9162 40.5485L1.6415 37.7768L1.34458 39.048ZM1.34458 39.048L0.0762123 39.4734L4.45359 51.5823L5.72195 51.1569L6.99031 50.7315L2.61294 38.6225L1.34458 39.048Z" fill="#6C5FBC"/>
</svg>
