<svg width="336" height="128" viewBox="0 0 336 128" fill="none" xmlns="http://www.w3.org/2000/svg">
<path d="M17.8125 45.328C44.4649 39.6434 77.0795 36.7601 103.184 45.0027C109.795 47.0904 115.476 50.2601 119.696 53.991M119.696 53.991C126.124 59.6735 129.164 66.6577 126.947 73.1036C123.478 83.1881 112.507 92.5673 93.4197 93.5525C83.4709 94.0661 74.3908 92.0312 71.3818 86.21C66.7846 77.3166 80.8069 66.8844 92.6683 62.1087C100.869 58.8068 110.004 56.0905 119.696 53.991ZM324.843 49.3736C298.645 43.0432 266.279 39.3658 239.576 46.9631C232.812 48.8874 226.897 51.9154 222.399 55.5397M222.399 55.5397C215.548 61.0599 211.982 67.9634 213.71 74.4575C216.414 84.6175 226.665 94.256 245.66 95.7066C255.561 96.4627 264.787 94.6515 268.233 88.9092C273.498 80.1364 260.278 69.3712 248.788 64.3101C240.844 60.8109 231.924 57.874 222.399 55.5397ZM222.399 55.5397C188.931 47.3377 151.58 45.4899 119.357 53.923" stroke="#F9F9F9" stroke-width="4" stroke-linecap="round"/>
<path d="M309.518 33.252C314.695 36.7683 326.112 45.0687 330.361 50.1399" stroke="#F9F9F9" stroke-width="4" stroke-linecap="round"/>
<path d="M330.367 50.1406C322.934 51.9229 306.106 56.339 298.249 59.7455" stroke="#F9F9F9" stroke-width="4" stroke-linecap="round"/>
</svg>
