<svg width="35" height="35" viewBox="0 0 35 35" fill="none" xmlns="http://www.w3.org/2000/svg">
<g clip-path="url(#clip0_1_14605)">
<path d="M17.2837 0.946289C8.27114 0.946289 0.945312 8.25005 0.945312 17.2849C0.945312 26.298 8.24898 33.6235 17.2837 33.6235C26.2967 33.6235 33.6221 26.3198 33.6221 17.2849C33.6221 8.25005 26.2967 0.946289 17.2837 0.946289ZM17.2837 22.7016C14.2869 22.7016 11.845 20.2596 11.845 17.2627C11.845 14.2659 14.2869 11.8239 17.2837 11.8239C20.2805 11.8239 22.7225 14.2659 22.7225 17.2627C22.7225 20.2822 20.281 22.7016 17.2837 22.7016Z" fill="#EDB66B"/>
<path d="M9.90945 22.6116C9.50571 22.6116 9.16579 22.4626 8.91052 22.2078C8.31532 21.5913 8.3366 20.529 8.37914 19.2752C8.40041 18.1912 8.44296 16.831 7.93286 16.3001C7.82649 16.1725 7.61421 16.024 7.12537 16.0027H7.04028C6.50891 16.0027 6.12644 16.1091 5.91371 16.3426C5.4887 16.7889 5.55252 17.7879 5.59506 18.5954C5.65888 19.4454 5.70143 20.1895 5.2126 20.6145C4.8514 20.9545 4.36257 21.1247 3.83119 21.1247C2.78971 21.1247 1.55722 20.4023 1.15348 19.5522C1.11138 19.4667 1.0901 19.4029 1.0901 19.3178L1.06883 19.105C1.00501 18.2976 0.919922 17.405 0.919922 17.0225C0.919922 8.01158 8.2515 0.701172 17.2406 0.701172C26.2297 0.701172 33.5617 8.03285 33.5617 17.0225C33.5617 17.3837 33.5404 17.7662 33.5192 18.1278C33.4341 19.254 32.5202 20.1253 31.4154 20.1253C31.1818 20.1253 30.9265 20.0827 30.693 19.9976C29.6302 19.5939 28.7377 18.8289 27.8876 18.0848C26.6551 17.0008 25.486 16.0023 23.8285 15.9597C22.787 15.9385 21.8519 15.3645 21.3635 14.4719C20.1736 12.2618 20.0247 12.1767 17.0283 12.1767C11.5031 12.1767 11.5031 15.2794 11.5031 16.2997C11.5031 16.8736 11.5457 17.4896 11.567 18.0848C11.6733 19.8274 11.7584 21.3573 11.0143 22.144C10.7808 22.4418 10.377 22.6116 9.90945 22.6116Z" fill="#86522C"/>
<path d="M17.2835 1.40269C25.9114 1.40269 32.9243 8.39445 32.9243 17.0437C32.9243 17.4049 32.903 17.7661 32.8818 18.1065C32.8179 18.8714 32.1806 19.4454 31.4795 19.4454C31.3306 19.4454 31.1609 19.4241 31.012 19.3603C28.6316 18.4677 27.0805 15.3437 23.9144 15.2803C23.1494 15.259 22.4053 14.834 22.0441 14.1537C20.7053 11.6461 20.259 11.4972 17.0925 11.4972C13.5647 11.4972 10.8657 12.6872 10.8657 16.3001C10.8657 18.8927 11.5247 21.9104 9.93061 21.9104C7.82682 21.9104 10.7381 15.4075 7.16825 15.3224H7.06188C3.59796 15.3224 5.51074 19.4454 4.78835 20.1252C4.53308 20.3592 4.21443 20.4439 3.87451 20.4439C3.02448 20.4439 2.08936 19.8487 1.83409 19.2752C1.79154 18.8289 1.68518 17.49 1.68518 17.0437C1.64263 8.39445 8.65557 1.40269 17.2835 1.40269ZM17.2835 0C7.89063 0 0.26123 7.6295 0.26123 17.0225C0.26123 17.4262 0.346322 18.3401 0.41014 19.1688L0.431413 19.3811C0.452686 19.5513 0.495231 19.721 0.55905 19.8699C1.09043 20.9748 2.53565 21.8253 3.85323 21.8253C4.55435 21.8253 5.19209 21.5913 5.70219 21.145C6.44586 20.4864 6.38204 19.5087 6.31822 18.5523C6.29695 18.0635 6.21186 17.0646 6.44586 16.831C6.4884 16.7884 6.67941 16.7034 7.06188 16.7034H7.1257C7.18952 16.7034 7.38053 16.7034 7.44435 16.7672C7.763 17.0858 7.72045 18.4885 7.69918 19.2535C7.65663 20.5923 7.63536 21.8674 8.42157 22.6749C8.80404 23.0786 9.33541 23.2914 9.93061 23.2914C10.5896 23.2914 11.1631 23.0574 11.5881 22.5902C12.5232 21.5913 12.4381 19.9338 12.3318 18.021C12.2892 17.447 12.268 16.831 12.268 16.2783C12.268 15.2581 12.268 12.8569 17.092 12.8569C19.791 12.8569 19.791 12.8569 20.8108 14.791C21.406 15.9171 22.5959 16.6187 23.8709 16.64C25.2736 16.6613 26.2938 17.5534 27.4838 18.5949C28.3976 19.3811 29.3327 20.2103 30.5014 20.6353C30.7988 20.7417 31.1392 20.8055 31.4578 20.8055C32.9243 20.8055 34.1568 19.6577 34.2414 18.1703C34.2627 17.7878 34.284 17.3841 34.284 17.0016C34.3061 7.65077 26.6767 0 17.2835 0Z" fill="#4C2F1B"/>
<path d="M19.6292 32.3393C19.7475 32.6487 20.2333 32.7501 20.7141 32.5658C21.195 32.3819 21.4888 31.9821 21.3705 31.6727C21.2522 31.3634 20.7664 31.2624 20.2856 31.4463C19.8047 31.6306 19.5109 32.0304 19.6292 32.3393Z" fill="#E3A358"/>
<path d="M28.5864 26.6155C28.7933 27.1562 29.2968 27.5365 29.9071 27.6132C30.5173 27.6894 31.1413 27.4505 31.5446 26.9865C31.9479 26.522 32.0689 25.9029 31.8619 25.3622C31.655 24.8211 31.1515 24.4413 30.5413 24.3646C29.931 24.2884 29.3065 24.5272 28.9032 24.9913C28.4999 25.4557 28.3794 26.0748 28.5864 26.6155Z" fill="#E3A358"/>
<path d="M13.118 33.3607C13.325 33.9013 13.8284 34.2816 14.4387 34.3583C15.0489 34.4345 15.6734 34.1956 16.0767 33.7316C16.48 33.2671 16.601 32.648 16.394 32.1073C16.187 31.5666 15.6836 31.1864 15.0733 31.1097C14.4631 31.0335 13.8386 31.2723 13.4353 31.7364C13.032 32.2008 12.911 32.82 13.118 33.3607Z" fill="#E3A358"/>
<path d="M9.713 30.8629C10.0378 30.9364 10.3631 30.8934 10.567 30.7494C10.7704 30.6054 10.821 30.3829 10.6995 30.1648C10.5781 29.9472 10.3033 29.7673 9.97846 29.6937C9.65361 29.6197 9.32831 29.6631 9.12445 29.8072C8.92103 29.9512 8.87051 30.1737 8.99194 30.3913C9.11293 30.6094 9.38814 30.7889 9.713 30.8629Z" fill="#E3A358"/>
<path d="M16.667 24.2649C16.9378 24.3265 17.202 24.3217 17.3602 24.2516C17.5184 24.1816 17.5463 24.058 17.4342 23.9268C17.3216 23.7956 17.0854 23.6768 16.8146 23.6152C16.5438 23.5536 16.2797 23.5585 16.1215 23.6285C15.9633 23.6985 15.9353 23.8222 16.0475 23.9534C16.16 24.085 16.3962 24.2033 16.667 24.2649Z" fill="#E3A358"/>
<path d="M4.43867 25.7875C4.64785 25.8349 4.85748 25.8043 4.98955 25.7077C5.12162 25.6107 5.15485 25.4622 5.07818 25.3182C5.00107 25.1737 4.82513 25.0558 4.61639 25.0084C4.4072 24.961 4.19758 24.9911 4.06595 25.0882C3.93388 25.1848 3.9002 25.3337 3.97732 25.4777C4.05354 25.6218 4.22993 25.7401 4.43867 25.7875Z" fill="#E3A358"/>
<path d="M12.8587 22.7001C13.1344 22.8871 13.4269 23.0041 13.6263 23.0068C13.8257 23.0094 13.902 22.8973 13.8257 22.7129C13.7499 22.5281 13.5332 22.2994 13.2576 22.1124C12.9819 21.9254 12.6894 21.8084 12.4895 21.8057C12.2901 21.8031 12.2143 21.9152 12.2901 22.0995C12.3663 22.2844 12.583 22.513 12.8587 22.7001Z" fill="#E3A358"/>
<path d="M17.2846 34.5688C7.75349 34.5688 0 26.8152 0 17.2848C0 7.75359 7.75349 0 17.2846 0C26.8153 0 34.5688 7.75359 34.5688 17.2848C34.5688 26.8152 26.8148 34.5688 17.2846 34.5688ZM17.2846 1.89153C8.80916 1.89153 1.91411 8.78711 1.91411 17.2622C1.91411 25.7373 8.8096 32.6329 17.2846 32.6329C25.7596 32.6329 32.6551 25.7378 32.6551 17.2622C32.6551 8.78667 25.7596 1.89153 17.2846 1.89153ZM17.2846 23.669C13.7639 23.669 10.9001 20.8051 10.9001 17.2848C10.9001 13.7522 13.7639 10.8781 17.2846 10.8781C20.8048 10.8781 23.6687 13.742 23.6687 17.2627C23.6687 20.7949 20.8048 23.669 17.2846 23.669ZM17.2846 12.7913C14.8192 12.7913 12.8138 14.7972 12.8138 17.2622C12.8138 19.7272 14.8196 21.7331 17.2846 21.7331C19.7496 21.7331 21.7554 19.7272 21.7554 17.2622C21.755 14.7972 19.7496 12.7913 17.2846 12.7913Z" fill="#4C2F1B"/>
<path d="M18.2165 8.36089L14.4871 5.89676C14.3315 5.80767 14.3094 5.60824 14.398 5.45268L14.8199 4.83133C14.9086 4.67577 15.1084 4.65361 15.264 4.74225L18.9934 7.20638C19.1489 7.29546 19.1711 7.49534 19.082 7.65045L18.6601 8.27225C18.5719 8.42737 18.372 8.44952 18.2165 8.36089Z" fill="#DB79AD"/>
<path d="M3.40971 12.2673L4.38649 10.1364C4.45297 9.98085 4.65284 9.91437 4.8084 9.98085L5.49667 10.2915C5.65222 10.358 5.7187 10.5579 5.65222 10.7134L4.67545 12.8443C4.60853 12.9998 4.40909 13.0663 4.25354 12.9998L3.56527 12.6892C3.40971 12.6001 3.32108 12.4228 3.40971 12.2673ZM27.651 12.0895L25.786 10.6465C25.6531 10.5357 25.6305 10.3358 25.7196 10.2024L26.1858 9.60325C26.2966 9.47029 26.4965 9.44769 26.6299 9.53677L28.4948 10.9798C28.6277 11.091 28.6503 11.2905 28.5613 11.4239L28.095 12.0235C27.9842 12.1786 27.7844 12.2003 27.651 12.0895Z" fill="#F6B173"/>
<path d="M22.9667 9.07076L21.6793 6.16255C21.6128 6.00699 21.6793 5.80711 21.8349 5.74063L22.5227 5.42996C22.6782 5.36348 22.8781 5.42996 22.9446 5.58552L24.232 8.49373C24.2985 8.64928 24.232 8.84872 24.0765 8.91564L23.3882 9.22632C23.2335 9.29279 23.0558 9.22587 22.9667 9.07076ZM8.67053 14.4874L7.38308 11.5792C7.31661 11.4236 7.38308 11.2242 7.53864 11.1573L8.2269 10.8466C8.38246 10.7801 8.58189 10.8466 8.64882 11.0022L9.93626 13.9104C10.0027 14.0659 9.93626 14.2658 9.78071 14.3323L9.09244 14.643C8.91517 14.7316 8.73745 14.643 8.67053 14.4874Z" fill="#F7E774"/>
<path d="M9.27078 8.47157L10.603 5.58552C10.6695 5.42996 10.8693 5.36348 11.0249 5.42996L11.7132 5.74063C11.8687 5.80711 11.9352 6.00699 11.8687 6.16255L10.5365 9.0486C10.47 9.20416 10.2702 9.27064 10.1146 9.20416L9.42634 8.89348C9.27078 8.827 9.2043 8.64928 9.27078 8.47157ZM29.3164 15.7088L29.7605 12.5564C29.7826 12.3787 29.9382 12.2679 30.1159 12.2901L30.8707 12.4009C31.0484 12.423 31.1592 12.5786 31.137 12.7559L30.6929 15.9083C30.6708 16.0856 30.5152 16.1968 30.3379 16.1746L29.5832 16.0638C29.405 16.0417 29.2943 15.8866 29.3164 15.7088Z" fill="#EC6A69"/>
<path d="M7.61857 26.5727C7.77368 26.6525 7.94608 26.6693 8.07106 26.6175C8.19559 26.5656 8.25365 26.4526 8.22307 26.321C8.19249 26.1893 8.07771 26.0595 7.92259 25.9797C7.76748 25.8999 7.59508 25.8831 7.4701 25.9349C7.34557 25.9868 7.28751 26.0998 7.31809 26.2314C7.34867 26.3626 7.46301 26.4929 7.61857 26.5727Z" fill="#E3A358"/>
<path d="M23.9424 27.3521C23.9819 27.4558 24.1454 27.5032 24.3701 27.4762C24.5952 27.4496 24.8483 27.3525 25.0335 27.2222C25.2188 27.0919 25.3088 26.9474 25.2693 26.8437C25.2294 26.74 25.0663 26.6926 24.8412 26.7192C24.6161 26.7458 24.363 26.8424 24.1778 26.9731C23.9925 27.1039 23.9025 27.2484 23.9424 27.3521Z" fill="#E3A358"/>
<path d="M13.9771 26.1876C14.1876 26.3432 14.4375 26.4119 14.6325 26.368C14.8275 26.3241 14.9383 26.1743 14.9224 25.9749C14.9068 25.7759 14.7677 25.557 14.5572 25.4014C14.3467 25.2458 14.0967 25.1772 13.9017 25.221C13.7067 25.2649 13.5959 25.4147 13.6119 25.6141C13.6269 25.814 13.7665 26.0325 13.9771 26.1876Z" fill="#E3A358"/>
<path d="M20.1969 29.167C20.2222 29.3492 20.469 29.4653 20.7482 29.4268C21.0279 29.3882 21.2335 29.2091 21.2083 29.027C21.183 28.8448 20.9362 28.7283 20.6569 28.7673C20.3773 28.8058 20.1717 28.9849 20.1969 29.167Z" fill="#E3A358"/>
</g>
<defs>
<clipPath id="clip0_1_14605">
<rect width="34.5688" height="34.5688" fill="white"/>
</clipPath>
</defs>
</svg>
