<svg width="51" height="50" viewBox="0 0 51 50" fill="none" xmlns="http://www.w3.org/2000/svg">
<g clip-path="url(#clip0_1_14628)">
<path d="M26.4469 25.8067C20.2745 31.5855 12.882 32.833 12.0607 32.9571C10.7961 33.1446 9.53211 32.8359 8.50432 32.0747C7.4762 31.3132 6.80084 30.199 6.61446 28.9347C6.37978 27.3777 6.92829 25.8 8.0796 24.7221C8.78708 24.0597 9.66527 23.6352 10.6267 23.4843C10.8288 23.4522 15.8027 22.6183 19.8281 18.8496C22.1987 16.63 23.7676 13.8268 24.4904 10.5197C24.7001 9.56603 25.1818 8.71021 25.8935 8.0439C27.0448 6.96598 28.6515 6.51859 30.1897 6.85519C31.4394 7.124 32.5064 7.87152 33.1986 8.9475C33.8909 10.0235 34.1193 11.3089 33.8451 12.5549C32.6968 17.8269 30.209 22.2844 26.4469 25.8067Z" fill="#F4A360"/>
<path d="M27.2127 26.6256C21.0323 32.412 13.6461 33.8447 12.228 34.0734C10.6691 34.3064 9.10854 33.9184 7.83737 32.9802C6.56389 32.0402 5.73426 30.6636 5.50275 29.103C5.21267 27.1805 5.8892 25.2371 7.31292 23.9042C8.18377 23.0888 9.26352 22.5578 10.4355 22.3683C10.474 22.3638 15.2419 21.5932 19.0542 18.024C21.2523 15.9659 22.7094 13.3581 23.3847 10.2729C23.6416 9.09628 24.2417 8.0402 25.1199 7.21797C26.5436 5.88502 28.5273 5.33779 30.4259 5.75368C31.9711 6.09289 33.2912 7.01096 34.1415 8.33865C34.994 9.66878 35.2785 11.2515 34.9424 12.7947C33.7434 18.2929 31.1427 22.9461 27.2127 26.6256ZM8.84539 25.541C7.96823 26.3622 7.5466 27.5674 7.71721 28.765C8.0149 30.7645 9.88465 32.146 11.8856 31.8463C12.1972 31.8004 19.6108 30.664 25.6728 24.9885C29.2589 21.631 31.6376 17.3683 32.7425 12.3191C32.953 11.3641 32.7782 10.3834 32.2501 9.55928C31.7213 8.73449 30.9021 8.16517 29.9438 7.95676C28.766 7.70081 27.5368 8.04058 26.6547 8.86641C26.1088 9.37747 25.7368 10.0321 25.5791 10.7595C24.8066 14.296 23.1279 17.2947 20.5894 19.6714C16.4325 23.5632 11.3536 24.502 10.788 24.5964C10.0613 24.7063 9.38809 25.0329 8.84539 25.541Z" fill="#4C2F1B"/>
<path d="M30.102 29.0775C24.669 34.1641 17.6542 36.6393 12.8969 37.2632C11.6289 37.4309 10.3737 37.0923 9.35777 36.3121C8.34217 35.5316 7.69433 34.4068 7.5313 33.1351C7.33424 31.6106 7.88532 30.0679 9.00894 29.0159C9.74061 28.3309 10.6538 27.896 11.6495 27.7656C11.7274 27.7525 13.7077 27.48 16.2806 26.5178C19.1592 25.4417 21.6136 23.9687 23.5723 22.1348C26.4106 19.4775 28.1186 16.1089 28.6428 12.1259C28.7877 11.0305 29.3098 10.0093 30.1172 9.25337C31.1686 8.269 32.5937 7.81163 34.0204 7.99755C35.2851 8.16225 36.4175 8.81103 37.197 9.8277C37.9765 10.8444 38.3103 12.0982 38.1477 13.3672C37.3251 19.5647 34.6192 24.8482 30.102 29.0775Z" fill="#FF6C4A"/>
<path d="M30.8762 29.905C25.2546 35.1682 17.9797 37.7345 13.046 38.3815C11.4776 38.5853 9.92481 38.1677 8.67348 37.205C7.42578 36.2455 6.62491 34.8518 6.41784 33.2815C6.17088 31.4001 6.85345 29.4997 8.24316 28.1986C9.14802 27.3514 10.2734 26.8171 11.4974 26.6531C11.5138 26.6509 13.4101 26.3925 15.8893 25.4688C18.6314 24.4436 20.9586 23.0469 22.8062 21.3171C25.4468 18.8449 27.0348 15.7044 27.5258 11.9825C27.7 10.6296 28.3466 9.36892 29.3475 8.43182C30.6496 7.21276 32.4065 6.65172 34.1673 6.89298C35.7293 7.09484 37.1208 7.89739 38.088 9.15245C39.0522 10.4037 39.4684 11.9564 39.2609 13.5238C38.4085 19.9825 35.5877 25.4939 30.8762 29.905ZM9.77891 29.8389C8.91893 30.6441 8.49517 31.8217 8.6447 32.9891C8.90518 34.9945 10.7479 36.4125 12.7519 36.1512C17.3356 35.5512 24.0992 33.1633 29.3362 28.2601C33.6596 24.2124 36.2473 19.1525 37.027 13.2206C37.1548 12.2511 36.8979 11.2894 36.3026 10.5137C35.7067 9.73669 34.8437 9.23862 33.8715 9.11161C32.7751 8.97072 31.6861 9.32116 30.8832 10.0728C30.2645 10.6521 29.8637 11.4342 29.7552 12.2753C29.1981 16.5225 27.3766 20.1163 24.3416 22.9578C22.2749 24.8927 19.6956 26.4452 16.6746 27.5724C13.9172 28.6002 11.8233 28.8773 11.8025 28.8797C11.0407 28.9809 10.3409 29.3127 9.77891 29.8389Z" fill="#4C2F1B"/>
<path d="M18.9694 31.1364C18.0982 31.9521 16.9969 31.4089 16.265 31.0523C15.4992 30.6749 15.0976 30.5264 14.9097 30.7023C14.4539 31.129 13.7422 31.1059 13.3158 30.6506C12.8895 30.1952 12.9133 29.4835 13.369 29.0567C14.7002 27.8104 16.2981 28.5559 17.1977 28.9953C17.0896 28.175 16.9842 26.9164 17.9637 25.9993C18.9509 25.075 20.2315 25.2327 21.0804 25.3299C21.2346 25.3506 21.4389 25.3762 21.5975 25.3854C21.621 25.1386 21.6106 24.7586 21.6036 24.5108C21.5787 23.627 21.5542 22.6233 22.2339 21.9868C22.9414 21.3244 24.0382 21.4215 25.0073 21.5114C25.123 21.5227 25.2541 21.5347 25.3896 21.5432C25.3865 21.5159 25.3834 21.4965 25.3764 21.4728C25.2456 20.6283 25.0526 19.3478 25.9638 18.4947C26.6793 17.8248 27.7138 17.9277 28.6244 18.0276C28.7135 18.0342 28.8215 18.0455 28.9295 18.0569C28.9219 18.0488 28.9225 18.041 28.9186 18.0368C28.481 17.1049 27.6671 15.3784 28.9864 14.1432C29.4421 13.7165 30.1539 13.7396 30.5802 14.195C31.0065 14.6503 30.9828 15.3621 30.527 15.7888C30.4539 16.0072 30.7938 16.7307 30.9605 17.0768C31.3438 17.8867 31.8684 19 30.993 19.8196C30.2932 20.4747 29.2822 20.3723 28.3904 20.2771C28.1397 20.2496 27.7501 20.2101 27.5172 20.2178C27.4977 20.4536 27.5645 20.8854 27.6025 21.1423C27.7201 21.9011 27.8504 22.7612 27.2028 23.3674C26.5991 23.9327 25.727 23.85 24.8002 23.7659C24.53 23.7415 24.1281 23.705 23.8572 23.7122C23.8419 23.9362 23.8546 24.2463 23.8591 24.4597C23.886 25.3935 23.9088 26.4515 23.1809 27.1329C22.4854 27.7841 21.5555 27.6728 20.8035 27.5821C20.271 27.5186 19.7197 27.4505 19.4999 27.6563C19.3239 27.821 19.3676 28.2521 19.4445 28.8472C19.5462 29.525 19.673 30.4777 18.9694 31.1364Z" fill="#F9AF38"/>
<path d="M33.2547 33.2623C27.5101 38.6408 20.8565 40.6128 19.5176 40.8173C18.2523 41.0047 17.1002 40.824 16.1888 40.2911C15.148 39.684 14.4664 38.6355 14.2733 37.34C14.0386 35.7831 14.5871 34.2054 15.7384 33.1274C16.4459 32.4651 17.3237 32.0402 18.2855 31.889C18.4877 31.8569 23.4615 31.023 27.4873 27.2539C29.8579 25.0344 31.4268 22.2312 32.1495 18.924C32.3597 17.9707 32.8413 17.1149 33.553 16.4486C34.7046 15.3704 36.3107 14.923 37.8489 15.2596C39.1217 15.5369 40.1107 16.2004 40.7055 17.1724C41.2819 18.1169 41.4441 19.2836 41.1661 20.5489C39.877 26.4174 36.6046 30.1261 33.2547 33.2623Z" fill="#F4A360"/>
<path d="M34.0206 34.0884C27.2403 40.4364 19.7444 41.9199 19.6696 41.9342C18.1584 42.1619 16.7526 41.9315 15.6146 41.2648C14.2709 40.4754 13.3967 39.1412 13.1537 37.5078C12.8637 35.5853 13.5402 33.6419 14.9639 32.309C15.8386 31.49 16.9203 30.9617 18.0916 30.7814C18.1339 30.776 22.9275 29.9794 26.7121 26.4361C28.9102 24.3781 30.367 21.7706 31.0426 18.685C31.2999 17.5088 31.8992 16.4527 32.7774 15.6305C34.2012 14.2975 36.1849 13.7503 38.0834 14.1662C39.6632 14.5092 40.8993 15.3475 41.6576 16.5903C42.3902 17.7909 42.5975 19.2441 42.2574 20.7929C40.9136 26.9585 37.5043 30.8268 34.0206 34.0884ZM16.5003 33.9493C15.6221 34.7715 15.1991 35.9781 15.3686 37.1767C15.6511 39.0643 17.1722 40.034 19.3386 39.7101C19.4035 39.7 26.2679 38.2608 32.4767 32.4478C35.693 29.4366 38.8366 25.8827 40.0556 20.3138C40.2754 19.3147 40.1547 18.4155 39.7053 17.7149C39.2704 17.0368 38.5425 16.5707 37.5991 16.3654C36.421 16.1098 35.1917 16.4496 34.31 17.2751C33.7645 17.7858 33.3925 18.4404 33.2344 19.1682C32.4619 22.7047 30.7829 25.7037 28.2446 28.0801C24.0846 31.9749 19.0085 32.9111 18.4433 33.0051C17.7162 33.1146 17.0427 33.4415 16.5003 33.9493Z" fill="#4C2F1B"/>
<path d="M24.2484 36.8002C24.1324 36.9088 23.9714 36.9695 23.8019 36.9487C23.4937 36.9153 23.27 36.637 23.3076 36.3244C23.489 34.7229 22.1878 33.9022 22.1345 33.8699C21.8686 33.706 21.7874 33.3628 21.9475 33.0932C22.1112 32.8275 22.4514 32.7418 22.7205 32.9013C22.8041 32.9505 24.6977 34.1158 24.4299 36.4502C24.4065 36.5924 24.3441 36.7106 24.2484 36.8002ZM31.9288 31.5583C31.857 31.6256 31.7664 31.6729 31.6646 31.7005C31.3601 31.7681 31.0608 31.5763 30.9939 31.2722C30.641 29.6537 29.2356 29.5228 29.2242 29.5184C28.9153 29.4927 28.6842 29.222 28.7101 28.9131C28.7357 28.6039 29.007 28.3729 29.3159 28.3985C30.0881 28.4623 31.6707 29.0945 32.0939 31.0291C32.1372 31.2279 32.0687 31.4274 31.9288 31.5583Z" fill="#4C2F1B"/>
<path d="M37.7594 23.9559C37.6953 24.0159 37.6164 24.0595 37.5302 24.0876C37.2295 24.1747 36.9215 23.9983 36.8344 23.6972C36.4259 22.2511 34.8636 22.2815 34.798 22.2831C34.4881 22.2887 34.2287 22.0517 34.2156 21.7412C34.2025 21.4314 34.4476 21.1717 34.7577 21.1587C35.6266 21.1248 37.4017 21.5465 37.9209 23.3912C37.9764 23.6022 37.9074 23.8173 37.7594 23.9559Z" fill="#4C2F1B"/>
<path d="M39.078 8.69677C38.9742 8.79392 38.8438 8.86339 38.7035 8.89755L37.314 9.2243C36.8882 9.32254 36.4591 9.07291 36.3376 8.65429L35.9524 7.32099C35.8657 7.02033 35.9536 6.7053 36.1815 6.49195C36.4455 6.24479 36.8343 6.19561 37.1458 6.37588L38.9211 7.38244C39.1494 7.51381 39.3005 7.73914 39.3342 8.00004C39.3637 8.25707 39.2697 8.51722 39.078 8.69677Z" fill="#FF6C4A"/>
<path d="M36.5628 6.89951C36.6388 6.82829 36.7556 6.80117 36.8659 6.86283L38.6409 7.86904C38.8041 7.96332 38.8128 8.17281 38.6929 8.28506C38.661 8.31493 38.6215 8.33675 38.5749 8.35085L37.1854 8.67761C37.0489 8.70815 36.916 8.63014 36.8775 8.50119L36.4923 7.16009C36.4644 7.05866 36.4948 6.96319 36.5628 6.89951ZM35.7924 6.07672C35.4085 6.43614 35.263 6.96937 35.4048 7.47356L35.7903 8.80652C35.9953 9.51381 36.7206 9.93642 37.4388 9.76617L38.8282 9.43941C39.0662 9.3816 39.2833 9.26842 39.4593 9.10365C39.7794 8.80397 39.9412 8.35991 39.8858 7.92476C39.8343 7.49313 39.5723 7.10153 39.1922 6.88745L37.417 5.88089C36.8929 5.58538 36.2363 5.66118 35.7924 6.07672Z" fill="#4C2F1B"/>
<path d="M7.20206 36.3971C7.01029 36.5767 6.74452 36.6533 6.4864 36.6025C6.22863 36.5513 6.01734 36.3896 5.89731 36.1496L5.00971 34.312C4.85418 33.9856 4.92498 33.6045 5.19282 33.3537C5.4207 33.1404 5.74051 33.073 6.03514 33.1797L7.34021 33.6517C7.74925 33.8005 7.97112 34.2455 7.84475 34.6635L7.42731 36.0285C7.38372 36.1745 7.30618 36.2996 7.20206 36.3971Z" fill="#FF6C4A"/>
<path d="M5.57787 33.7731C5.64588 33.7094 5.73953 33.6815 5.84287 33.7195L7.14759 34.1919C7.27372 34.2388 7.34643 34.3804 7.30336 34.5108L6.88592 35.8757C6.8691 35.9217 6.84441 35.9593 6.81251 35.9891C6.69261 36.1014 6.48414 36.079 6.4008 35.9099L5.51321 34.0722C5.46671 33.9593 5.50179 33.8443 5.57787 33.7731ZM4.80754 32.9503C4.3637 33.3658 4.23738 34.0165 4.50532 34.5669L5.39292 36.4046C5.58514 36.8017 5.95505 37.0851 6.38236 37.1649C6.81746 37.2452 7.26702 37.1162 7.58675 36.8168C7.76274 36.652 7.89379 36.4399 7.9633 36.2092L8.38075 34.8443C8.59755 34.1384 8.22424 33.387 7.52743 33.1395L6.22271 32.6672C5.73307 32.4808 5.19143 32.5909 4.80754 32.9503Z" fill="#4C2F1B"/>
</g>
<defs>
<clipPath id="clip0_1_14628">
<rect width="44.9726" height="25.6986" fill="white" transform="translate(0 30.7367) rotate(-43.1142)"/>
</clipPath>
</defs>
</svg>
