<svg width="23" height="42" viewBox="0 0 23 42" fill="none" xmlns="http://www.w3.org/2000/svg">
<g clip-path="url(#clip0_1_14583)">
<path d="M4.69785 16.404C4.69785 16.404 2.02181 11.5914 8.11141 8.68002C14.2015 5.76868 13.0018 2.78704 12.9559 0.956055C12.9559 0.956055 18.0767 2.74032 18.0767 8.06954C18.0767 14.2437 4.69785 16.404 4.69785 16.404Z" fill="white"/>
<path d="M14.2936 2.97554C14.2936 2.97554 15.6314 7.85892 13.0249 9.66632C10.4184 11.4742 6.65811 12.0139 5.27441 14.1506C5.27441 14.1506 7.23521 15.1602 10.3493 14.3619C13.4634 13.5637 18.0766 8.82136 18.0766 8.82136C18.0766 8.82136 20.0606 1.26157 14.2936 2.97554Z" fill="#5A85FF"/>
<path d="M14.3397 3.11563C14.3397 3.11563 16.7849 6.23832 16.2083 8.32738C15.6316 10.4169 13.0251 11.7784 12.633 11.8723C12.2408 11.9662 6.61243 13.1872 5.29736 14.1496C5.29736 14.1496 11.4792 14.1024 13.2096 13.14C14.9627 12.1776 18.7226 9.64177 17.8692 7.62301C17.0158 5.60426 16.2315 2.10602 14.3397 3.11563Z" fill="#507BE1"/>
<path d="M4.91347 17.4018C4.82211 17.3828 4.7615 17.3828 4.69778 17.3828C4.35152 17.3828 4.03334 17.1964 3.86756 16.8961C3.66524 16.5011 2.70891 14.4538 3.42549 12.1824C4.0066 10.3618 5.45491 8.88596 7.72899 7.79699C12.4456 5.56643 12.2549 3.56808 12.0864 1.80513C12.0632 1.50035 12.0401 1.24091 12.0169 0.981484C12.0178 0.683501 12.1639 0.378261 12.409 0.186409C12.5726 0.0680326 12.7762 0 12.9763 0C13.0837 0 13.1885 0.0190491 13.2874 0.0566938C14.2749 0.439037 19.061 2.5739 19.061 8.11674C19.061 14.9445 5.94199 17.2331 4.91347 17.4018ZM14.0557 3.0592C13.9772 4.91105 13.2803 7.32348 8.54182 9.56402C6.76775 10.4181 5.66258 11.4934 5.25571 12.7611C4.98076 13.651 5.0886 14.5123 5.22764 15.0787L5.2829 15.3037L5.50616 15.2579C6.69467 15.013 17.1158 12.7312 17.1158 8.07093C17.1158 5.42447 15.6577 3.78443 14.4345 2.87415L14.0748 2.60656L14.0557 3.0592Z" fill="#4C2F1B"/>
<path d="M2.32134 23.1183C2.32134 23.1183 -0.700511 17.9061 5.75852 15.3241C11.8945 12.859 13.3245 15.2769 17.7305 9.66602C18.3535 10.8162 20.5906 14.0092 17.4769 18.0236C16.1155 19.7847 5.52768 23.2122 2.32134 23.1183Z" fill="white"/>
<path d="M17.5001 11.2158C17.5001 11.2158 18.4693 16.0053 9.98042 16.6861C4.3057 17.1324 2.22949 21.5931 2.22949 21.5931L15.3084 19.2686L19.0914 15.4887L17.5001 11.2158Z" fill="#FF5C68"/>
<path d="M8.15768 40.2098C7.58103 40.2098 7.07345 39.7871 6.9812 39.2002L5.68931 31.3824C5.62023 31.0304 5.73565 30.6549 5.96649 30.3963C6.19689 30.1147 6.51997 29.9736 6.88896 29.9736H14.8012C15.147 29.9736 15.4933 30.1378 15.7237 30.3963C15.9545 30.6785 16.0468 31.0304 16.0009 31.3824L14.709 39.2002C14.6167 39.7871 14.1091 40.2098 13.5325 40.2098H8.15768Z" fill="#FFCD8A"/>
<path d="M8.15764 41.1878C7.10238 41.1878 6.18214 40.3972 6.01726 39.3495L4.72492 31.5294C4.61975 30.8654 4.7931 30.21 5.20041 29.7333C5.62688 29.2344 6.23383 28.9482 6.86574 28.9482H14.778C15.4103 28.9482 16.0173 29.2344 16.4433 29.7333C16.8497 30.23 17.0244 30.8858 16.9188 31.5299L15.6269 39.3473C15.4384 40.4122 14.5378 41.1873 13.4861 41.1873H8.15764V41.1878ZM7.95577 39.2076H13.6875L15.0596 30.9049H6.58366L7.95577 39.2076Z" fill="#4C2F1B"/>
<path d="M17.1107 33.3355L10.9056 33.6807H10.7604L4.55535 33.3351C3.94929 33.3106 3.41586 32.8416 3.31916 32.2248L2.27727 26.6747C2.13199 25.8361 2.76212 25.0469 3.5861 25.0469H18.0804C18.9289 25.0469 19.559 25.8361 19.3892 26.6747L18.3473 32.2252C18.2256 32.8421 17.7167 33.2861 17.1107 33.3355Z" fill="#FFCD8A"/>
<path d="M1.16846 28.3094L1.72951 27.5057L11.6386 34.6732L11.0776 35.4769L1.16846 28.3094ZM4.42114 27.6014L4.9822 26.7978L14.8909 33.9652L14.3298 34.7689L4.42114 27.6014ZM8.13997 27.0005L8.70147 26.1968L18.6102 33.3643L18.0491 34.168L8.13997 27.0005ZM10.7215 25.4258L11.2826 24.6221L19.8753 30.8375L19.3138 31.6412L10.7215 25.4258Z" fill="#FFBB71"/>
<path d="M9.41684 34.6868L19.3269 27.5207L19.8879 28.3249L9.97789 35.491L9.41684 34.6868ZM6.17574 33.9552L18.436 25.0892L18.9971 25.8934L6.73679 34.7589L6.17574 33.9552ZM2.42126 33.3702L12.3308 26.2041L12.8919 27.0077L2.98232 34.1738L2.42126 33.3702ZM1.16992 30.8493L9.76354 24.6348L10.3246 25.4389L1.73098 31.6535L1.16992 30.8493Z" fill="#FFBB71"/>
<path d="M10.6035 35.6477L4.7113 35.3197C3.13643 35.254 1.82448 34.0888 1.51833 32.4869L0.526793 27.2053C0.334279 26.2047 0.602551 25.1561 1.26209 24.3284C1.93634 23.5093 2.87885 23.0566 3.91406 23.0566H17.7319C18.7568 23.0566 19.7207 23.5297 20.3094 24.322C20.9801 25.1149 21.2461 26.1616 21.0496 27.2053L20.0576 32.4878C19.7559 34.067 18.4431 35.2318 16.8647 35.3197L10.9658 35.6477H10.6035ZM3.93679 25.0128C3.49918 25.0128 3.08385 25.2124 2.79641 25.5611C2.50096 25.9199 2.37707 26.3884 2.45639 26.847L3.44927 32.1322C3.55666 32.8157 4.15961 33.3577 4.85034 33.3858L10.7519 33.7142L10.9034 33.7146L16.8219 33.3854C17.5131 33.3291 18.0852 32.8148 18.2189 32.134L19.2109 26.8501C19.3018 26.4016 19.1895 25.9367 18.9025 25.5784C18.6147 25.2192 18.1877 25.0128 17.7314 25.0128H3.93679Z" fill="#4C2F1B"/>
<path d="M17.5233 11.873C17.5233 11.873 18.054 15.3241 15.8397 16.9206C13.1177 19.3154 5.32092 19.0337 3.3833 20.5595C3.3833 20.5595 15.6088 20.818 17.0389 17.249C18.4689 13.6804 18.9302 12.0372 17.5233 11.873Z" fill="#F93D53"/>
<path d="M2.2986 24.1209C1.97596 24.1209 1.67962 23.94 1.48576 23.6243C1.46304 23.5898 0.0615155 21.1411 0.932286 18.5491C1.52944 16.748 3.02722 15.3602 5.38373 14.4236C7.7349 13.4942 9.4702 13.2625 10.8641 13.0761C13.2478 12.764 14.5589 12.5921 17.132 9.32475C17.3107 9.09344 17.5727 8.96191 17.8521 8.96191C17.8869 8.96191 17.9217 8.96373 17.956 8.96826C18.288 8.98867 18.5741 9.18053 18.7167 9.46989C18.751 9.52568 18.771 9.56196 18.7911 9.59779C18.8174 9.64451 18.8441 9.69077 18.87 9.73114C19.5981 10.9897 21.5509 14.3628 18.2354 18.6498C16.5482 20.8245 5.77099 24.1214 2.41402 24.1214H2.2986V24.1209ZM17.4662 11.9173C15.0308 14.5116 13.2211 14.7442 11.1266 15.0136C9.644 15.1928 8.14132 15.4223 6.08605 16.2496C4.28257 16.9594 3.15689 17.949 2.74201 19.1908C2.46081 19.9918 2.49112 20.9298 2.83381 21.9752L2.89352 22.158L3.08203 22.1403C6.78837 21.791 15.6939 18.7219 16.6948 17.4488C18.6102 14.9533 18.2786 13.1446 17.8624 12.0007L17.73 11.637L17.4662 11.9173Z" fill="#4C2F1B"/>
<path d="M18.6762 16.1924C18.6762 16.1924 17.2921 19.3382 11.8714 20.4417C7.51173 21.3102 0.983622 20.7469 0.960449 25.0198C0.960449 29.0814 17.5688 28.377 19.6219 24.7146C22.5978 19.3854 18.6762 16.1924 18.6762 16.1924Z" fill="white"/>
<path d="M2.09131 25.0436C4.69783 22.6022 11.5717 24.1048 13.9938 23.2122C17.2692 21.9912 18.6765 21.5921 18.9532 17.9297C18.9532 17.9297 23.1516 22.8834 17.7768 26.217C14.6627 28.0956 3.95941 29.4335 2.09131 25.0436Z" fill="#FFF383"/>
<path d="M18.9992 17.9072C18.9992 17.9072 23.7283 27.791 3.38281 25.9836C3.40599 25.9832 25.9658 30.0914 18.9992 17.9072Z" fill="#F6E259"/>
<path d="M8.20458 28.6512C5.86901 28.6512 3.92738 28.3881 2.58869 27.891C0.893498 27.2987 0 26.3063 0 25.0201C0 20.8873 4.63237 20.3517 8.35432 19.9208L8.46171 19.9081C9.75807 19.7766 10.8071 19.6296 11.6636 19.4591C16.2322 18.5338 18.0335 16.0248 18.1886 15.6248L18.1685 15.7023C18.3143 15.4433 18.5522 15.2683 18.8388 15.2098C18.8905 15.1989 18.9435 15.1943 18.9961 15.1943C19.2158 15.1943 19.4471 15.2837 19.6311 15.4402C21.3615 16.9532 23.7394 20.9676 20.3357 25.3149C18.6864 27.4828 12.8552 28.6512 8.20458 28.6512ZM18.8989 17.9243C17.7452 19.1225 15.6222 20.6982 12.0575 21.4012C10.9804 21.6153 9.7496 21.7572 8.68765 21.8674C4.6141 22.3278 1.9452 22.7958 1.9452 25.0196C1.9452 25.4827 2.76739 25.8469 3.25759 26.0233C4.44788 26.4487 6.12213 26.6737 8.09986 26.6737C12.2501 26.6737 17.7006 25.6129 18.8864 24.0903C20.9765 21.3876 20.021 19.0876 19.2657 17.9574L19.1021 17.7125L18.8989 17.9243Z" fill="#4C2F1B"/>
</g>
<defs>
<clipPath id="clip0_1_14583">
<rect width="22.0652" height="41.1883" fill="white"/>
</clipPath>
</defs>
</svg>
