<svg width="26" height="26" viewBox="0 0 26 26" fill="none" xmlns="http://www.w3.org/2000/svg">
<path d="M15.9559 21.1567C17.6599 22.0895 19.1585 20.959 18.8326 18.9807L18.2474 15.4287L20.7262 12.9131C22.1047 11.514 21.5352 9.68081 19.6274 9.39218L16.2018 8.87394L14.6774 5.65815C13.8235 3.85681 11.9695 3.83744 11.114 5.64216L9.58209 8.87394L6.15653 9.39218C4.25139 9.6804 3.67721 11.512 5.05773 12.9131L7.53648 15.4287L6.95133 18.9807C6.62589 20.9562 8.12161 22.0908 9.82803 21.1567L12.8919 19.4797L15.9559 21.1567Z" fill="#6C5FBC"/>
<mask id="mask0_1_16751" style="mask-type:luminance" maskUnits="userSpaceOnUse" x="4" y="4" width="18" height="18">
<path d="M15.9559 21.1567C17.6599 22.0895 19.1585 20.959 18.8326 18.9807L18.2474 15.4287L20.7262 12.9131C22.1047 11.514 21.5352 9.68081 19.6274 9.39218L16.2018 8.87394L14.6774 5.65815C13.8235 3.85681 11.9695 3.83744 11.114 5.64216L9.58209 8.87394L6.15653 9.39218C4.25139 9.6804 3.67721 11.512 5.05773 12.9131L7.53648 15.4287L6.95133 18.9807C6.62589 20.9562 8.12161 22.0908 9.82803 21.1567L12.8919 19.4797L15.9559 21.1567Z" fill="white"/>
</mask>
<g mask="url(#mask0_1_16751)">
</g>
</svg>
