<svg width="34" height="60" viewBox="0 0 34 60" fill="none" xmlns="http://www.w3.org/2000/svg">
<path fill-rule="evenodd" clip-rule="evenodd" d="M12.809 49.5066C11.0907 52.4954 8.96376 55.3171 6.9336 58.095C5.15768 55.1822 3.48642 52.1985 1.75049 49.2635C3.88797 46.2614 5.46435 42.7862 7.00551 39.4492C9.38252 42.9892 11.3163 46.4012 12.809 49.5066Z" stroke="#AA9CFF" stroke-width="3.5008" stroke-miterlimit="1.5" stroke-linecap="round" stroke-linejoin="round"/>
<path fill-rule="evenodd" clip-rule="evenodd" d="M25.9043 18.7696C25.9894 15.934 24.6807 13.1062 21.8112 11.3995C20.7001 10.7387 19.3838 10.4981 18.0874 10.2981C23.3539 10.1387 25.1822 5.27716 25.915 1.51367C25.6605 4.88906 27.6614 8.53496 31.7503 8.8714C27.6799 10.9834 26.2829 14.8591 25.9043 18.7696Z" stroke="#A597FF" stroke-width="3.02784" stroke-miterlimit="1.5" stroke-linecap="round" stroke-linejoin="round"/>
</svg>
