<svg width="30" height="22" viewBox="0 0 30 22" fill="none" xmlns="http://www.w3.org/2000/svg">
<path fill-rule="evenodd" clip-rule="evenodd" d="M2.45753 21.7667C1.10027 21.7667 0 20.6664 0 19.3092L0 2.45753C0 1.10028 1.10027 0 2.45753 0L27.6597 0C29.1397 0 29.9554 1.71896 29.0195 2.86544L26.4866 5.96829L29.5927 9.77329C30.1201 10.4194 30.1201 11.3473 29.5927 11.9934L26.4866 15.7984L29.0195 18.9013C29.9554 20.0477 29.1397 21.7667 27.6597 21.7667L2.45753 21.7667ZM2.10646 19.3092C2.10646 19.5031 2.26364 19.6603 2.45753 19.6603L26.9199 19.6603L24.6736 16.9085C24.1462 16.2624 24.1462 15.3344 24.6736 14.6884L27.7797 10.8834L24.6736 7.07835C24.1462 6.43228 24.1462 5.5043 24.6736 4.85823L26.9199 2.10645L2.45753 2.10645C2.26364 2.10645 2.10646 2.26364 2.10646 2.45753L2.10646 19.3092Z" fill="#ACADB9"/>
<path fill-rule="evenodd" clip-rule="evenodd" d="M9.47876 17.5538C8.89708 17.5538 8.42554 17.0823 8.42554 16.5006L8.42554 5.26616C8.42554 4.68448 8.89708 4.21293 9.47876 4.21293C10.0604 4.21293 10.532 4.68448 10.532 5.26616L10.532 16.5006C10.532 17.0823 10.0604 17.5538 9.47876 17.5538Z" fill="#ACADB9"/>
<path fill-rule="evenodd" clip-rule="evenodd" d="M13.6917 17.5538C13.11 17.5538 12.6384 17.0823 12.6384 16.5006L12.6384 5.26616C12.6384 4.68448 13.11 4.21293 13.6917 4.21293C14.2733 4.21293 14.7449 4.68448 14.7449 5.26616L14.7449 16.5006C14.7449 17.0823 14.2733 17.5538 13.6917 17.5538Z" fill="#ACADB9"/>
<path fill-rule="evenodd" clip-rule="evenodd" d="M17.9043 17.5538C17.3226 17.5538 16.8511 17.0823 16.8511 16.5006V5.26616C16.8511 4.68448 17.3226 4.21293 17.9043 4.21293C18.486 4.21293 18.9575 4.68448 18.9575 5.26616V16.5006C18.9575 17.0823 18.486 17.5538 17.9043 17.5538Z" fill="#ACADB9"/>
</svg>
