<svg width="51" height="51" viewBox="0 0 51 51" fill="none" xmlns="http://www.w3.org/2000/svg">
<rect width="50.2588" height="50.2588" rx="25.1294" fill="#F2FDF6"/>
<path d="M30.3646 34.8151H19.894C16.7528 34.8151 14.6587 33.2445 14.6587 29.5798V22.2504C14.6587 18.5857 16.7528 17.0151 19.894 17.0151H30.3646C33.5058 17.0151 35.5999 18.5857 35.5999 22.2504V29.5798C35.5999 33.2445 33.5058 34.8151 30.3646 34.8151Z" stroke="#22C55E" stroke-width="1.57059" stroke-miterlimit="10" stroke-linecap="round" stroke-linejoin="round"/>
<path d="M25.129 29.0563C26.8638 29.0563 28.2701 27.6499 28.2701 25.9151C28.2701 24.1803 26.8638 22.7739 25.129 22.7739C23.3941 22.7739 21.9878 24.1803 21.9878 25.9151C21.9878 27.6499 23.3941 29.0563 25.129 29.0563Z" stroke="#22C55E" stroke-width="1.57059" stroke-miterlimit="10" stroke-linecap="round" stroke-linejoin="round"/>
<path d="M18.3232 23.2979V28.5331" stroke="#22C55E" stroke-width="1.57059" stroke-miterlimit="10" stroke-linecap="round" stroke-linejoin="round"/>
<path d="M31.9351 23.2979V28.5331" stroke="#22C55E" stroke-width="1.57059" stroke-miterlimit="10" stroke-linecap="round" stroke-linejoin="round"/>
</svg>
