<svg width="283" height="281" viewBox="0 0 283 281" fill="none" xmlns="http://www.w3.org/2000/svg">
<g filter="url(#filter0_d_1_16838)">
<rect x="23.5342" y="18.8271" width="206.987" height="205.48" rx="16.7593" fill="white"/>
<rect x="23.6731" y="18.9661" width="206.709" height="205.202" rx="16.6204" stroke="#EDF2F7" stroke-width="0.277838"/>
</g>
<path d="M106.41 202.885V203.356H103.148V203.018L105.17 199.889H105.638L105.136 200.795L103.799 202.885H106.41ZM105.781 199.889V204.404H105.207V199.889H105.781ZM108.302 204.404H107.359L107.365 203.917H108.302C108.624 203.917 108.893 203.85 109.108 203.716C109.323 203.579 109.485 203.389 109.592 203.145C109.702 202.899 109.756 202.612 109.756 202.283V202.007C109.756 201.749 109.725 201.519 109.663 201.319C109.601 201.116 109.51 200.945 109.39 200.807C109.271 200.666 109.124 200.56 108.95 200.488C108.778 200.415 108.581 200.379 108.358 200.379H107.341V199.889H108.358C108.653 199.889 108.923 199.939 109.167 200.038C109.411 200.135 109.621 200.277 109.797 200.463C109.975 200.647 110.111 200.87 110.206 201.133C110.301 201.393 110.349 201.687 110.349 202.013V202.283C110.349 202.61 110.301 202.904 110.206 203.167C110.111 203.427 109.973 203.65 109.794 203.834C109.616 204.018 109.401 204.159 109.149 204.259C108.898 204.356 108.616 204.404 108.302 204.404ZM107.679 199.889V204.404H107.08V199.889H107.679Z" fill="#828282"/>
<path d="M138.054 202.936L137.595 202.818L137.821 200.57H140.138V201.1H138.308L138.172 202.328C138.255 202.28 138.359 202.236 138.485 202.195C138.613 202.153 138.76 202.133 138.925 202.133C139.134 202.133 139.321 202.169 139.487 202.241C139.652 202.311 139.793 202.413 139.909 202.545C140.026 202.677 140.116 202.837 140.178 203.023C140.24 203.209 140.271 203.417 140.271 203.646C140.271 203.863 140.241 204.063 140.181 204.245C140.124 204.426 140.036 204.586 139.918 204.722C139.8 204.857 139.651 204.961 139.471 205.035C139.293 205.11 139.084 205.147 138.842 205.147C138.66 205.147 138.487 205.122 138.324 205.073C138.163 205.021 138.018 204.943 137.89 204.84C137.764 204.735 137.66 204.604 137.58 204.449C137.501 204.292 137.451 204.108 137.431 203.897H137.977C138.001 204.067 138.051 204.209 138.125 204.325C138.2 204.441 138.297 204.529 138.417 204.589C138.539 204.647 138.68 204.676 138.842 204.676C138.978 204.676 139.099 204.652 139.205 204.604C139.31 204.557 139.399 204.488 139.471 204.4C139.544 204.311 139.598 204.203 139.636 204.077C139.675 203.951 139.695 203.809 139.695 203.652C139.695 203.51 139.675 203.377 139.636 203.255C139.596 203.133 139.537 203.027 139.459 202.936C139.382 202.845 139.288 202.775 139.177 202.725C139.065 202.673 138.937 202.647 138.792 202.647C138.6 202.647 138.454 202.673 138.355 202.725C138.258 202.777 138.157 202.847 138.054 202.936ZM142.272 205.085H141.329L141.335 204.598H142.272C142.594 204.598 142.863 204.531 143.078 204.396C143.293 204.26 143.454 204.07 143.562 203.826C143.671 203.58 143.726 203.292 143.726 202.964V202.688C143.726 202.429 143.695 202.2 143.633 201.999C143.571 201.797 143.48 201.626 143.36 201.488C143.24 201.347 143.093 201.241 142.92 201.168C142.748 201.096 142.551 201.06 142.327 201.06H141.31V200.57H142.327C142.623 200.57 142.893 200.619 143.137 200.718C143.381 200.816 143.591 200.957 143.766 201.143C143.944 201.327 144.081 201.551 144.176 201.813C144.271 202.074 144.318 202.367 144.318 202.694V202.964C144.318 203.29 144.271 203.585 144.176 203.848C144.081 204.108 143.943 204.33 143.763 204.514C143.586 204.698 143.371 204.84 143.118 204.939C142.868 205.036 142.586 205.085 142.272 205.085ZM141.648 200.57V205.085H141.05V200.57H141.648Z" fill="#828282"/>
<path d="M173.5 200.563H173.55V201.05H173.5C173.197 201.05 172.942 201.1 172.738 201.199C172.533 201.296 172.371 201.428 172.251 201.593C172.131 201.756 172.044 201.94 171.99 202.145C171.938 202.35 171.913 202.557 171.913 202.768V203.432C171.913 203.633 171.936 203.81 171.984 203.965C172.031 204.118 172.097 204.248 172.179 204.353C172.262 204.459 172.355 204.538 172.458 204.592C172.564 204.646 172.673 204.673 172.787 204.673C172.919 204.673 173.037 204.648 173.141 204.598C173.244 204.546 173.331 204.475 173.401 204.384C173.474 204.291 173.528 204.181 173.566 204.055C173.603 203.929 173.621 203.791 173.621 203.64C173.621 203.505 173.605 203.376 173.572 203.252C173.539 203.126 173.488 203.014 173.42 202.917C173.352 202.818 173.266 202.74 173.162 202.685C173.061 202.627 172.94 202.598 172.8 202.598C172.64 202.598 172.492 202.637 172.353 202.716C172.217 202.792 172.104 202.893 172.015 203.02C171.928 203.144 171.879 203.279 171.866 203.426L171.562 203.423C171.591 203.191 171.645 202.994 171.723 202.83C171.804 202.665 171.903 202.531 172.021 202.427C172.141 202.322 172.274 202.245 172.421 202.198C172.57 202.148 172.727 202.123 172.893 202.123C173.118 202.123 173.312 202.166 173.476 202.25C173.639 202.335 173.773 202.449 173.879 202.592C173.984 202.732 174.062 202.891 174.111 203.069C174.163 203.245 174.189 203.426 174.189 203.612C174.189 203.825 174.159 204.024 174.099 204.21C174.039 204.396 173.949 204.56 173.829 204.7C173.711 204.841 173.566 204.951 173.392 205.029C173.218 205.108 173.017 205.147 172.787 205.147C172.543 205.147 172.33 205.097 172.148 204.998C171.966 204.897 171.815 204.762 171.696 204.595C171.576 204.428 171.486 204.241 171.426 204.037C171.366 203.832 171.336 203.624 171.336 203.413V203.144C171.336 202.825 171.368 202.513 171.432 202.207C171.496 201.901 171.607 201.624 171.764 201.376C171.923 201.128 172.143 200.93 172.424 200.784C172.705 200.637 173.064 200.563 173.5 200.563ZM176.242 205.085H175.299L175.305 204.598H176.242C176.564 204.598 176.833 204.531 177.048 204.396C177.263 204.26 177.424 204.07 177.532 203.826C177.642 203.58 177.696 203.292 177.696 202.964V202.688C177.696 202.429 177.665 202.2 177.603 201.999C177.541 201.797 177.45 201.626 177.33 201.488C177.21 201.347 177.064 201.241 176.89 201.168C176.718 201.096 176.521 201.06 176.298 201.06H175.281V200.57H176.298C176.593 200.57 176.863 200.619 177.107 200.718C177.351 200.816 177.561 200.957 177.737 201.143C177.914 201.327 178.051 201.551 178.146 201.813C178.241 202.074 178.289 202.367 178.289 202.694V202.964C178.289 203.29 178.241 203.585 178.146 203.848C178.051 204.108 177.913 204.33 177.734 204.514C177.556 204.698 177.341 204.84 177.088 204.939C176.838 205.036 176.556 205.085 176.242 205.085ZM175.619 200.57V205.085H175.02V200.57H175.619Z" fill="#828282"/>
<path d="M205.623 200.57V200.892L203.753 205.085H203.148L205.015 201.041H202.571V200.57H205.623ZM207.648 205.085H206.705L206.712 204.598H207.648C207.971 204.598 208.239 204.531 208.454 204.396C208.669 204.26 208.831 204.07 208.938 203.826C209.048 203.58 209.103 203.292 209.103 202.964V202.688C209.103 202.429 209.072 202.2 209.01 201.999C208.948 201.797 208.857 201.626 208.737 201.488C208.617 201.347 208.47 201.241 208.296 201.168C208.125 201.096 207.927 201.06 207.704 201.06H206.687V200.57H207.704C208 200.57 208.269 200.619 208.513 200.718C208.757 200.816 208.967 200.957 209.143 201.143C209.321 201.327 209.457 201.551 209.552 201.813C209.647 202.074 209.695 202.367 209.695 202.694V202.964C209.695 203.29 209.647 203.585 209.552 203.848C209.457 204.108 209.32 204.33 209.14 204.514C208.962 204.698 208.747 204.84 208.495 204.939C208.245 205.036 207.962 205.085 207.648 205.085ZM207.025 200.57V205.085H206.426V200.57H207.025Z" fill="#828282"/>
<rect x="52.7764" y="193.641" width="27.7739" height="19.6592" rx="9.82962" fill="#E7E7E7" fill-opacity="0.92"/>
<path d="M65.3808 204.692V205.39H62.2921V204.794L63.7527 203.228C63.8995 203.065 64.0153 202.921 64.1 202.797C64.1848 202.671 64.2458 202.558 64.283 202.459C64.3223 202.358 64.3419 202.262 64.3419 202.171C64.3419 202.034 64.3192 201.917 64.2737 201.82C64.2282 201.721 64.161 201.644 64.0721 201.591C63.9853 201.537 63.8778 201.51 63.7496 201.51C63.6132 201.51 63.4953 201.543 63.3961 201.609C63.2989 201.675 63.2245 201.767 63.1728 201.885C63.1232 202.003 63.0984 202.137 63.0984 202.285H62.2021C62.2021 202.017 62.2662 201.771 62.3944 201.547C62.5226 201.322 62.7035 201.143 62.9371 201.011C63.1707 200.876 63.4478 200.809 63.7682 200.809C64.0845 200.809 64.3512 200.861 64.5683 200.964C64.7875 201.066 64.9529 201.212 65.0645 201.405C65.1782 201.595 65.2351 201.822 65.2351 202.087C65.2351 202.236 65.2113 202.381 65.1637 202.524C65.1162 202.665 65.048 202.805 64.9591 202.946C64.8722 203.084 64.7668 203.225 64.6427 203.368C64.5187 203.51 64.3812 203.658 64.2303 203.811L63.4457 204.692H65.3808ZM67.4183 205.39H66.4352L66.4414 204.664H67.4183C67.6623 204.664 67.868 204.609 68.0354 204.5C68.2029 204.388 68.329 204.226 68.4138 204.013C68.5006 203.8 68.544 203.542 68.544 203.241V203.02C68.544 202.789 68.5192 202.585 68.4696 202.409C68.4221 202.234 68.3507 202.086 68.2556 201.966C68.1605 201.846 68.0437 201.756 67.9052 201.696C67.7667 201.634 67.6075 201.603 67.4276 201.603H66.4166V200.874H67.4276C67.7295 200.874 68.0055 200.926 68.2556 201.029C68.5079 201.131 68.726 201.276 68.91 201.467C69.094 201.657 69.2356 201.884 69.3348 202.149C69.4361 202.411 69.4868 202.704 69.4868 203.027V203.241C69.4868 203.561 69.4361 203.854 69.3348 204.118C69.2356 204.383 69.094 204.61 68.91 204.8C68.728 204.989 68.5099 205.134 68.2556 205.238C68.0034 205.339 67.7243 205.39 67.4183 205.39ZM66.9624 200.874V205.39H66.0321V200.874H66.9624Z" fill="#151515"/>
<path d="M23.6079 163.409C34.6779 163.409 35.7492 177.822 47.5334 177.822C59.3176 177.822 56.4608 136.858 67.5308 136.858C78.6009 136.858 72.5302 102.343 87.8854 102.343C103.241 102.343 96.0986 136.858 110.025 136.858C123.952 136.858 121.81 96.567 130.737 96.567C139.664 96.567 137.165 120.549 147.878 120.549C158.591 120.549 153.591 80.9932 165.018 80.9932C176.445 80.9932 175.374 98.2598 185.73 98.2598C196.086 98.2598 197.157 118.273 211.441 118.273C225.725 118.273 216.797 140.58 230.367 140.58" stroke="#6C5FBC" stroke-width="1.98779" stroke-linecap="round" stroke-linejoin="round"/>
<path d="M195.706 101.981C197.526 101.981 199.117 103.572 199.117 105.681C199.117 107.789 197.526 109.38 195.706 109.38C193.886 109.38 192.296 107.789 192.295 105.681C192.295 103.572 193.886 101.982 195.706 101.981Z" fill="#C5BFED" stroke="#6C5FBC" stroke-width="2.22012"/>
<rect x="195.089" y="83.7832" width="25.6489" height="11.9084" rx="5.95422" fill="#6C5FBC"/>
<path d="M203.732 90.4996C203.732 90.692 203.683 90.8733 203.583 91.0436C203.486 91.2101 203.342 91.3488 203.15 91.4598C202.961 91.5671 202.737 91.63 202.478 91.6485V92.0981H202.123V91.643C201.753 91.6097 201.455 91.4987 201.229 91.31C201.004 91.1176 200.887 90.8585 200.88 90.5329H201.712C201.734 90.7993 201.871 90.9603 202.123 91.0158V89.9557C201.856 89.8891 201.642 89.8225 201.479 89.7559C201.316 89.6893 201.176 89.582 201.057 89.434C200.939 89.286 200.88 89.0843 200.88 88.829C200.88 88.5071 200.994 88.2444 201.224 88.0408C201.457 87.8373 201.757 87.7208 202.123 87.6912V87.2416H202.478V87.6912C202.833 87.7208 203.116 87.8281 203.327 88.0131C203.542 88.1981 203.662 88.4534 203.688 88.779H202.85C202.839 88.6717 202.8 88.5792 202.733 88.5015C202.671 88.4201 202.585 88.3628 202.478 88.3295V89.3785C202.756 89.4488 202.974 89.5172 203.133 89.5838C203.296 89.6467 203.436 89.7522 203.555 89.9002C203.673 90.0445 203.732 90.2443 203.732 90.4996ZM201.69 88.7901C201.69 88.9122 201.727 89.0121 201.801 89.0899C201.875 89.1639 201.982 89.2249 202.123 89.273V88.3128C201.99 88.3313 201.884 88.3813 201.807 88.4627C201.729 88.5441 201.69 88.6532 201.69 88.7901ZM202.478 91.0269C202.619 91.001 202.728 90.9436 202.806 90.8548C202.887 90.766 202.928 90.6587 202.928 90.5329C202.928 90.4108 202.889 90.3128 202.811 90.2388C202.733 90.1648 202.622 90.1037 202.478 90.0556V91.0269ZM204.478 90.8271V90.2166L206.293 87.619H207.197V90.15H207.686V90.8271H207.197V91.6152H206.42V90.8271H204.478ZM206.47 88.4516L205.333 90.15H206.47V88.4516ZM208.181 89.5394C208.181 88.8993 208.295 88.3979 208.525 88.0353C208.758 87.6727 209.143 87.4914 209.679 87.4914C210.216 87.4914 210.599 87.6727 210.828 88.0353C211.061 88.3979 211.178 88.8993 211.178 89.5394C211.178 90.1833 211.061 90.6883 210.828 91.0547C210.599 91.421 210.216 91.6041 209.679 91.6041C209.143 91.6041 208.758 91.421 208.525 91.0547C208.295 90.6883 208.181 90.1833 208.181 89.5394ZM210.412 89.5394C210.412 89.2656 210.393 89.0362 210.356 88.8512C210.323 88.6625 210.253 88.5089 210.145 88.3905C210.042 88.2721 209.886 88.2129 209.679 88.2129C209.472 88.2129 209.315 88.2721 209.207 88.3905C209.104 88.5089 209.034 88.6625 208.997 88.8512C208.963 89.0362 208.947 89.2656 208.947 89.5394C208.947 89.8206 208.963 90.0575 208.997 90.2499C209.03 90.4386 209.1 90.5921 209.207 90.7105C209.315 90.8252 209.472 90.8826 209.679 90.8826C209.886 90.8826 210.044 90.8252 210.151 90.7105C210.258 90.5921 210.329 90.4386 210.362 90.2499C210.395 90.0575 210.412 89.8206 210.412 89.5394ZM212.668 90.4774C212.698 90.6402 212.764 90.766 212.868 90.8548C212.975 90.9399 213.118 90.9825 213.295 90.9825C213.525 90.9825 213.691 90.8881 213.795 90.6994C213.898 90.507 213.95 90.1851 213.95 89.7337C213.865 89.8521 213.745 89.9446 213.589 90.0112C213.438 90.0778 213.273 90.1111 213.095 90.1111C212.859 90.1111 212.644 90.063 212.451 89.9668C212.263 89.8669 212.113 89.7207 212.002 89.5283C211.891 89.3322 211.835 89.0954 211.835 88.8179C211.835 88.4072 211.958 88.0815 212.202 87.841C212.446 87.5968 212.779 87.4747 213.201 87.4747C213.726 87.4747 214.096 87.6431 214.311 87.9798C214.529 88.3165 214.638 88.8234 214.638 89.5006C214.638 89.9816 214.596 90.3757 214.511 90.6828C214.429 90.9899 214.287 91.223 214.083 91.3821C213.883 91.5412 213.61 91.6208 213.262 91.6208C212.988 91.6208 212.755 91.569 212.562 91.4654C212.37 91.3581 212.222 91.2193 212.118 91.0491C212.019 90.8752 211.961 90.6846 211.946 90.4774H212.668ZM213.256 89.4784C213.449 89.4784 213.6 89.4192 213.711 89.3008C213.822 89.1824 213.878 89.0232 213.878 88.8234C213.878 88.6051 213.819 88.4368 213.7 88.3184C213.586 88.1963 213.428 88.1352 213.229 88.1352C213.029 88.1352 212.87 88.1981 212.751 88.3239C212.637 88.446 212.579 88.6088 212.579 88.8123C212.579 89.0084 212.635 89.1694 212.746 89.2952C212.86 89.4173 213.031 89.4784 213.256 89.4784Z" fill="white"/>
<line opacity="0.09" x1="23.8615" y1="157.503" x2="229.84" y2="157.503" stroke="#6C5FBC" stroke-width="0.585257" stroke-linecap="round"/>
<line opacity="0.09" x1="24.5431" y1="132.846" x2="230.521" y2="132.846" stroke="#6C5FBC" stroke-width="0.585257" stroke-linecap="round"/>
<line opacity="0.09" x1="23.8615" y1="107.463" x2="229.84" y2="107.463" stroke="#6C5FBC" stroke-width="0.585257" stroke-linecap="round"/>
<g clip-path="url(#clip0_1_16838)">
<rect x="49.4072" y="32.0146" width="37.9194" height="18.2662" rx="9.13309" fill="#6C5FBC"/>
<path d="M65.6341 38.7234V43.1475H65.0523V39.8486L63.5819 43.1475H63.1727L61.6959 39.8422V43.1475H61.1141V38.7234H61.7407L63.3773 42.3803L65.014 38.7234H65.6341ZM66.4034 41.3829C66.4034 41.0249 66.4758 40.7117 66.6207 40.4432C66.7657 40.1704 66.9638 39.9594 67.2153 39.8102C67.471 39.6611 67.7545 39.5865 68.0656 39.5865C68.3725 39.5865 68.6388 39.6525 68.8647 39.7847C69.0906 39.9168 69.259 40.083 69.3698 40.2833V39.644H69.958V43.1475H69.3698V42.4954C69.2547 42.6999 69.0821 42.8704 68.852 43.0068C68.6261 43.1389 68.3618 43.205 68.0592 43.205C67.7481 43.205 67.4668 43.1283 67.2153 42.9748C66.9638 42.8214 66.7657 42.6062 66.6207 42.3291C66.4758 42.0521 66.4034 41.7367 66.4034 41.3829ZM69.3698 41.3893C69.3698 41.1251 69.3165 40.8949 69.21 40.6989C69.1034 40.5028 68.9585 40.3536 68.7752 40.2514C68.5962 40.1448 68.398 40.0915 68.1807 40.0915C67.9633 40.0915 67.7651 40.1427 67.5861 40.245C67.4071 40.3473 67.2643 40.4964 67.1578 40.6925C67.0512 40.8885 66.9979 41.1187 66.9979 41.3829C66.9979 41.6515 67.0512 41.8859 67.1578 42.0862C67.2643 42.2823 67.4071 42.4336 67.5861 42.5401C67.7651 42.6424 67.9633 42.6935 68.1807 42.6935C68.398 42.6935 68.5962 42.6424 68.7752 42.5401C68.9585 42.4336 69.1034 42.2823 69.21 42.0862C69.3165 41.8859 69.3698 41.6536 69.3698 41.3893ZM71.2416 39.075C71.1308 39.075 71.037 39.0367 70.9603 38.9599C70.8836 38.8832 70.8452 38.7895 70.8452 38.6786C70.8452 38.5678 70.8836 38.4741 70.9603 38.3973C71.037 38.3206 71.1308 38.2823 71.2416 38.2823C71.3482 38.2823 71.4377 38.3206 71.5101 38.3973C71.5868 38.4741 71.6252 38.5678 71.6252 38.6786C71.6252 38.7895 71.5868 38.8832 71.5101 38.9599C71.4377 39.0367 71.3482 39.075 71.2416 39.075ZM71.5229 39.644V43.1475H70.9411V39.644H71.5229ZM74.2214 39.5801C74.6476 39.5801 74.9929 39.7101 75.2571 39.9701C75.5214 40.2258 75.6535 40.5966 75.6535 41.0825V43.1475H75.0781V41.1656C75.0781 40.8161 74.9907 40.5497 74.816 40.3664C74.6412 40.1789 74.4026 40.0851 74.0999 40.0851C73.7931 40.0851 73.548 40.181 73.3647 40.3728C73.1857 40.5646 73.0962 40.8438 73.0962 41.2103V43.1475H72.5144V39.644H73.0962V40.1427C73.2113 39.9637 73.3669 39.8251 73.5629 39.7271C73.7632 39.6291 73.9827 39.5801 74.2214 39.5801Z" fill="white"/>
<path d="M106.219 38.3741L104.835 43.1484H104.136L103.027 39.3057L101.876 43.1484L101.184 43.1553L99.8483 38.3741H100.513L101.554 42.4224L102.705 38.3741H103.403L104.499 42.4087L105.547 38.3741H106.219ZM110.394 41.1277C110.394 41.2465 110.387 41.3721 110.374 41.5045H107.373C107.396 41.8744 107.522 42.1643 107.75 42.3744C107.983 42.5799 108.264 42.6827 108.593 42.6827C108.862 42.6827 109.086 42.621 109.264 42.4977C109.447 42.3698 109.575 42.2009 109.648 41.9908H110.319C110.218 42.3516 110.017 42.6461 109.716 42.8744C109.415 43.0982 109.04 43.2101 108.593 43.2101C108.237 43.2101 107.917 43.1302 107.634 42.9703C107.355 42.8105 107.136 42.5845 106.976 42.2922C106.816 41.9954 106.736 41.6529 106.736 41.2647C106.736 40.8766 106.814 40.5364 106.969 40.2441C107.125 39.9519 107.341 39.7281 107.62 39.5728C107.903 39.413 108.227 39.3331 108.593 39.3331C108.949 39.3331 109.264 39.4107 109.538 39.566C109.812 39.7212 110.022 39.9359 110.168 40.2099C110.319 40.4793 110.394 40.7853 110.394 41.1277ZM109.75 40.9976C109.75 40.7601 109.698 40.5569 109.593 40.388C109.488 40.2144 109.344 40.0843 109.161 39.9975C108.983 39.9062 108.784 39.8605 108.565 39.8605C108.25 39.8605 107.981 39.961 107.757 40.1619C107.538 40.3628 107.412 40.6414 107.38 40.9976H109.75ZM114.71 41.1277C114.71 41.2465 114.704 41.3721 114.69 41.5045H111.69C111.712 41.8744 111.838 42.1643 112.066 42.3744C112.299 42.5799 112.58 42.6827 112.909 42.6827C113.178 42.6827 113.402 42.621 113.58 42.4977C113.763 42.3698 113.891 42.2009 113.964 41.9908H114.635C114.535 42.3516 114.334 42.6461 114.032 42.8744C113.731 43.0982 113.356 43.2101 112.909 43.2101C112.553 43.2101 112.233 43.1302 111.95 42.9703C111.671 42.8105 111.452 42.5845 111.292 42.2922C111.133 41.9954 111.053 41.6529 111.053 41.2647C111.053 40.8766 111.13 40.5364 111.285 40.2441C111.441 39.9519 111.658 39.7281 111.936 39.5728C112.219 39.413 112.544 39.3331 112.909 39.3331C113.265 39.3331 113.58 39.4107 113.854 39.566C114.128 39.7212 114.338 39.9359 114.484 40.2099C114.635 40.4793 114.71 40.7853 114.71 41.1277ZM114.067 40.9976C114.067 40.7601 114.014 40.5569 113.909 40.388C113.804 40.2144 113.66 40.0843 113.477 39.9975C113.299 39.9062 113.101 39.8605 112.881 39.8605C112.566 39.8605 112.297 39.961 112.073 40.1619C111.854 40.3628 111.728 40.6414 111.696 40.9976H114.067ZM117.698 43.1484L116.225 41.4908V43.1484H115.602V38.0796H116.225V41.0592L117.67 39.3947H118.54L116.773 41.2647L118.547 43.1484H117.698ZM119.819 38.0796V43.1484H119.195V38.0796H119.819ZM124.183 39.3947L121.922 44.9157H121.278L122.018 43.1073L120.504 39.3947H121.196L122.374 42.4361L123.539 39.3947H124.183Z" fill="#828282"/>
<path d="M147.617 38.4084V43.1484H146.994V39.6139L145.419 43.1484H144.98L143.398 39.6071V43.1484H142.775V38.4084H143.446L145.199 42.3265L146.953 38.4084H147.617ZM150.38 43.2101C150.028 43.2101 149.709 43.1302 149.421 42.9703C149.138 42.8105 148.914 42.5845 148.75 42.2922C148.59 41.9954 148.51 41.6529 148.51 41.2647C148.51 40.8811 148.592 40.5432 148.757 40.251C148.926 39.9541 149.154 39.7281 149.442 39.5728C149.729 39.413 150.051 39.3331 150.407 39.3331C150.764 39.3331 151.086 39.413 151.373 39.5728C151.661 39.7281 151.887 39.9519 152.051 40.2441C152.22 40.5364 152.305 40.8766 152.305 41.2647C152.305 41.6529 152.218 41.9954 152.045 42.2922C151.876 42.5845 151.645 42.8105 151.353 42.9703C151.06 43.1302 150.736 43.2101 150.38 43.2101ZM150.38 42.6621C150.604 42.6621 150.814 42.6096 151.01 42.5046C151.207 42.3995 151.364 42.242 151.483 42.0319C151.606 41.8219 151.668 41.5661 151.668 41.2647C151.668 40.9633 151.608 40.7076 151.49 40.4976C151.371 40.2875 151.216 40.1322 151.024 40.0318C150.832 39.9267 150.624 39.8742 150.401 39.8742C150.172 39.8742 149.962 39.9267 149.77 40.0318C149.583 40.1322 149.432 40.2875 149.318 40.4976C149.204 40.7076 149.147 40.9633 149.147 41.2647C149.147 41.5707 149.202 41.8287 149.311 42.0388C149.426 42.2488 149.576 42.4064 149.764 42.5114C149.951 42.6119 150.156 42.6621 150.38 42.6621ZM155.022 39.3262C155.478 39.3262 155.848 39.4655 156.131 39.7441C156.415 40.0181 156.556 40.4154 156.556 40.9359V43.1484H155.94V41.025C155.94 40.6505 155.846 40.3651 155.659 40.1688C155.472 39.9678 155.216 39.8674 154.892 39.8674C154.563 39.8674 154.3 39.9701 154.104 40.1756C153.912 40.3811 153.816 40.6802 153.816 41.0729V43.1484H153.193V39.3947H153.816V39.929C153.94 39.7372 154.106 39.5888 154.316 39.4838C154.531 39.3788 154.766 39.3262 155.022 39.3262ZM158.403 39.9085V42.121C158.403 42.3036 158.442 42.4338 158.52 42.5114C158.597 42.5845 158.732 42.621 158.924 42.621H159.383V43.1484H158.821C158.474 43.1484 158.214 43.0685 158.04 42.9087C157.867 42.7489 157.78 42.4863 157.78 42.121V39.9085H157.294V39.3947H157.78V38.4495H158.403V39.3947H159.383V39.9085H158.403ZM160.83 38.0796V43.1484H160.206V38.0796H160.83ZM165.194 39.3947L162.933 44.9157H162.289L163.029 43.1073L161.515 39.3947H162.207L163.385 42.4361L164.55 39.3947H165.194Z" fill="#828282"/>
<path d="M186.709 38.3741L185.154 41.3469V43.1484H184.53V41.3469L182.969 38.3741H183.66L184.839 40.7921L186.017 38.3741H186.709ZM190.86 41.1277C190.86 41.2465 190.853 41.3721 190.839 41.5045H187.839C187.862 41.8744 187.987 42.1643 188.216 42.3744C188.448 42.5799 188.729 42.6827 189.058 42.6827C189.327 42.6827 189.551 42.621 189.729 42.4977C189.912 42.3698 190.04 42.2009 190.113 41.9908H190.784C190.684 42.3516 190.483 42.6461 190.181 42.8744C189.88 43.0982 189.506 43.2101 189.058 43.2101C188.702 43.2101 188.382 43.1302 188.099 42.9703C187.821 42.8105 187.601 42.5845 187.441 42.2922C187.282 41.9954 187.202 41.6529 187.202 41.2647C187.202 40.8766 187.279 40.5364 187.435 40.2441C187.59 39.9519 187.807 39.7281 188.085 39.5728C188.368 39.413 188.693 39.3331 189.058 39.3331C189.414 39.3331 189.729 39.4107 190.003 39.566C190.277 39.7212 190.487 39.9359 190.633 40.2099C190.784 40.4793 190.86 40.7853 190.86 41.1277ZM190.216 40.9976C190.216 40.7601 190.163 40.5569 190.058 40.388C189.953 40.2144 189.809 40.0843 189.627 39.9975C189.448 39.9062 189.25 39.8605 189.031 39.8605C188.716 39.8605 188.446 39.961 188.222 40.1619C188.003 40.3628 187.878 40.6414 187.846 40.9976H190.216ZM191.518 41.2579C191.518 40.8743 191.596 40.5387 191.751 40.251C191.906 39.9587 192.118 39.7327 192.388 39.5728C192.662 39.413 192.966 39.3331 193.299 39.3331C193.628 39.3331 193.913 39.4039 194.155 39.5454C194.397 39.687 194.578 39.8651 194.696 40.0797V39.3947H195.326V43.1484H194.696V42.4498C194.573 42.669 194.388 42.8516 194.141 42.9977C193.899 43.1393 193.616 43.2101 193.292 43.2101C192.959 43.2101 192.657 43.1279 192.388 42.9635C192.118 42.7991 191.906 42.5685 191.751 42.2717C191.596 41.9748 191.518 41.6369 191.518 41.2579ZM194.696 41.2647C194.696 40.9816 194.639 40.735 194.525 40.525C194.411 40.3149 194.256 40.1551 194.059 40.0455C193.867 39.9313 193.655 39.8742 193.422 39.8742C193.189 39.8742 192.977 39.929 192.785 40.0386C192.593 40.1482 192.44 40.308 192.326 40.5181C192.212 40.7282 192.155 40.9748 192.155 41.2579C192.155 41.5456 192.212 41.7967 192.326 42.0114C192.44 42.2214 192.593 42.3835 192.785 42.4977C192.977 42.6073 193.189 42.6621 193.422 42.6621C193.655 42.6621 193.867 42.6073 194.059 42.4977C194.256 42.3835 194.411 42.2214 194.525 42.0114C194.639 41.7967 194.696 41.5479 194.696 41.2647ZM197.072 40.0044C197.181 39.7897 197.336 39.6231 197.537 39.5043C197.743 39.3856 197.992 39.3262 198.284 39.3262V39.9701H198.12C197.421 39.9701 197.072 40.3491 197.072 41.1072V43.1484H196.448V39.3947H197.072V40.0044ZM199.695 38.0796V43.1484H199.072V38.0796H199.695ZM204.059 39.3947L201.799 44.9157H201.155L201.895 43.1073L200.381 39.3947H201.073L202.251 42.4361L203.416 39.3947H204.059Z" fill="#828282"/>
</g>
<defs>
<filter id="filter0_d_1_16838" x="4.00543e-05" y="-0.000162125" width="282.297" height="280.79" filterUnits="userSpaceOnUse" color-interpolation-filters="sRGB">
<feFlood flood-opacity="0" result="BackgroundImageFix"/>
<feColorMatrix in="SourceAlpha" type="matrix" values="0 0 0 0 0 0 0 0 0 0 0 0 0 0 0 0 0 0 127 0" result="hardAlpha"/>
<feOffset dx="14.1205" dy="18.8273"/>
<feGaussianBlur stdDeviation="18.8273"/>
<feColorMatrix type="matrix" values="0 0 0 0 0.101961 0 0 0 0 0.12549 0 0 0 0 0.172549 0 0 0 0.15 0"/>
<feBlend mode="normal" in2="BackgroundImageFix" result="effect1_dropShadow_1_16838"/>
<feBlend mode="normal" in="SourceGraphic" in2="effect1_dropShadow_1_16838" result="shape"/>
</filter>
<clipPath id="clip0_1_16838">
<rect x="49.4072" y="32.0146" width="159.389" height="18.2662" rx="9.13309" fill="white"/>
</clipPath>
</defs>
</svg>
